<?xml version="1.0" encoding="UTF-8" standalone="no"?>
<!DOCTYPE svg PUBLIC "-//W3C//DTD SVG 1.1//EN" "http://www.w3.org/Graphics/SVG/1.1/DTD/svg11.dtd">
<svg width="100%" height="100%" viewBox="0 0 573 362" version="1.1" xmlns="http://www.w3.org/2000/svg" xmlns:xlink="http://www.w3.org/1999/xlink" xml:space="preserve" xmlns:serif="http://www.serif.com/" style="fill-rule:evenodd;clip-rule:evenodd;stroke-linejoin:round;stroke-miterlimit:2;">
    <g transform="matrix(1,0,0,1,-313.56,-269.326)">
        <path d="M731.572,357.326C731.572,391.994 677.382,494.233 646.312,550.004C642.026,557.699 633.88,562.487 625.072,562.487C616.263,562.487 608.118,557.699 603.832,550.004C572.762,494.233 518.572,391.994 518.572,357.326C518.572,308.725 566.254,269.326 625.072,269.326C683.89,269.326 731.572,308.725 731.572,357.326Z" style="fill:rgb(104,144,77);fill-rule:nonzero;"/>
    </g>
    <circle cx="312.012" cy="87" r="58" style="fill:white;"/>
    <circle cx="69.982" cy="104.74" r="34.74" style="fill:rgb(218,106,0);"/>
    <ellipse cx="311.512" cy="354.856" rx="84.092" ry="6.492" style="fill:rgb(104,144,77);"/>
    <g transform="matrix(0.160182,-0.987087,0.987087,0.160182,-410.533,420.211)">
        <circle cx="356.74" cy="401.758" r="19.986" style="fill:rgb(104,144,77);fill-opacity:0.4;"/>
    </g>
    <g transform="matrix(1,0,0,1,-313.56,-269.326)">
        <path d="M824.33,504.856C666.94,445.856 474.98,503.376 364.15,621.036C363.52,621.696 362.89,622.366 362.28,623.036L360.59,623.036C361.17,622.366 361.77,621.696 362.36,621.036C475.49,494.426 664.9,443.966 824.33,504.856Z" style="fill-rule:nonzero;"/>
    </g>
    <g transform="matrix(1,0,0,1,-313.56,-269.326)">
        <path d="M867.34,524.426C853.428,517.007 839.063,510.471 824.33,504.856C839.102,510.378 853.473,516.917 867.34,524.426Z" style="fill-rule:nonzero;"/>
    </g>
    <circle cx="467.641" cy="174.315" r="21.92" style="fill:rgb(104,144,77);fill-opacity:0.4;"/>
    <g transform="matrix(1,0,0,1,-313.56,-269.326)">
        <path d="M783.641,612.247C785.335,618.509 791.137,622.387 791.137,622.387C791.137,622.387 794.193,616.113 792.499,609.851C790.805,603.589 785.003,599.711 785.003,599.711C785.003,599.711 781.947,605.986 783.641,612.247Z" style="fill-rule:nonzero;"/>
    </g>
    <g transform="matrix(1,0,0,1,-313.56,-269.326)">
        <path d="M786.13,610.902C790.779,615.427 791.346,622.382 791.346,622.382C791.346,622.382 784.378,622.002 779.73,617.477C775.082,612.952 774.514,605.996 774.514,605.996C774.514,605.996 781.482,606.377 786.13,610.902Z" style="fill:rgb(104,144,77);fill-rule:nonzero;"/>
    </g>
    <g transform="matrix(1,0,0,1,-313.56,-269.326)">
        <path d="M316.92,525.182L316.92,534.842L316.44,535.362L316.44,525.082C316.6,525.112 316.76,525.152 316.92,525.182Z" style="fill-rule:nonzero;"/>
    </g>
    <g transform="matrix(1,0,0,1,-313.56,-269.326)">
        <path d="M347.7,621.032C347.56,621.262 347.41,621.492 347.26,621.722L316.44,621.722L316.44,525.662L316.92,525.182L321.01,529.832L321.01,523.032L334.01,523.032L334.01,544.612L347.14,559.522L347.26,559.662C347.42,560.162 347.57,560.662 347.72,561.162C347.721,561.169 347.724,561.176 347.73,561.182C349.699,567.483 351.315,573.89 352.57,580.372C355.43,595.662 355,609.682 347.7,621.032Z" style="fill:rgb(204,204,204);fill-rule:nonzero;"/>
    </g>
    <rect x="5.427" y="308.953" width="8.274" height="6.895"/>
    <rect x="5.427" y="321.365" width="8.274" height="6.895"/>
    <g transform="matrix(1,0,0,1,-313.56,-269.326)">
        <path d="M582.148,565.178L578.011,558.283L616.625,525.185C645.172,511.444 679.583,515.409 715.919,525.185L715.919,534.838L680.063,573.453L638.69,581.727L582.148,565.178Z" style="fill-rule:nonzero;"/>
    </g>
    <g transform="matrix(1,0,0,1,-313.56,-269.326)">
        <path d="M733.011,544.608C739.868,536.981 740.821,529.728 733.011,523.031L720.011,523.031L720.011,529.835L715.919,525.185L682.821,558.283L677.304,563.799L670.409,591.381L682.821,621.72L746.258,621.72L746.258,559.662L733.011,544.608Z" style="fill:rgb(204,204,204);fill-rule:nonzero;"/>
    </g>
    <g transform="matrix(1,0,0,1,-313.56,-269.326)">
        <path d="M578.011,558.283L682.821,558.283L682.821,621.72L578.011,621.72C565.331,608.002 571.918,582.997 578.011,558.283Z" style="fill:rgb(242,242,242);fill-rule:nonzero;"/>
    </g>
    <rect x="332.715" y="308.953" width="22.065" height="19.307"/>
    <rect x="304.444" y="308.263" width="19.307" height="44.13" style="fill:rgb(204,204,204);"/>
    <path d="M282.379,315.159L282.379,308.264L274.105,308.264L274.105,315.159L282.379,315.159Z" style="fill-rule:nonzero;"/>
    <path d="M282.379,320.675L274.105,320.675L274.105,327.571L282.379,327.571L282.379,320.675Z" style="fill-rule:nonzero;"/>
    <rect x="287.895" y="308.263" width="8.274" height="6.895"/>
    <rect x="287.895" y="320.675" width="8.274" height="6.895"/>
    <path d="M398.911,315.849L398.911,308.953L390.636,308.953L390.636,315.849L398.911,315.849Z" style="fill-rule:nonzero;"/>
    <path d="M398.911,321.365L390.636,321.365L390.636,328.26L398.911,328.26L398.911,321.365Z" style="fill-rule:nonzero;"/>
    <rect x="404.427" y="308.953" width="8.274" height="6.895"/>
    <rect x="404.427" y="321.365" width="8.274" height="6.895"/>
    <path d="M81.966,180.01L75.071,174.493L113.685,140.016L211.599,140.016L211.599,170.356L148.162,213.108L81.966,180.01Z" style="fill-rule:nonzero;"/>
    <g transform="matrix(1,0,0,1,-313.56,-269.326)">
        <path d="M543.011,428.682L543.011,410.031L530.011,410.031L530.011,414.599L525.159,409.342L493.44,443.819L481.029,452.094L461.784,592.697L490.807,621.72L558.257,621.72C568.592,569.732 576.787,516.326 558.257,445.198L543.011,428.682Z" style="fill:rgb(204,204,204);fill-rule:nonzero;"/>
    </g>
    <g transform="matrix(1,0,0,1,-313.56,-269.326)">
        <path d="M388.63,443.819L493.44,443.819L493.44,621.72L388.63,621.72C377.161,552.607 371.56,488.515 388.63,443.819Z" style="fill:rgb(242,242,242);fill-rule:nonzero;"/>
    </g>
    <rect x="115.753" y="308.953" width="19.307" height="43.441" style="fill:rgb(204,204,204);"/>
    <path d="M95.067,321.365L95.067,314.47L86.793,314.47L86.793,321.365L95.067,321.365Z" style="fill-rule:nonzero;"/>
    <path d="M95.067,326.881L86.793,326.881L86.793,333.777L95.067,333.777L95.067,326.881Z" style="fill-rule:nonzero;"/>
    <rect x="100.583" y="314.469" width="8.274" height="6.895"/>
    <path d="M151.609,326.881L143.335,326.881L143.335,333.777L151.609,333.777L151.609,326.881Z" style="fill-rule:nonzero;"/>
    <rect x="157.125" y="314.469" width="8.274" height="6.895"/>
    <rect x="157.125" y="326.881" width="8.274" height="6.895"/>
    <path d="M209.53,183.457L209.53,176.562L201.256,176.562L201.256,183.457L209.53,183.457Z" style="fill-rule:nonzero;"/>
    <path d="M209.53,188.974L201.256,188.974L201.256,195.869L209.53,195.869L209.53,188.974Z" style="fill-rule:nonzero;"/>
    <rect x="215.047" y="176.562" width="8.274" height="6.895"/>
    <rect x="215.047" y="188.973" width="8.274" height="6.895"/>
    <path d="M209.53,222.072L209.53,215.176L201.256,215.176L201.256,222.072L209.53,222.072Z" style="fill-rule:nonzero;"/>
    <path d="M209.53,227.588L201.256,227.588L201.256,234.483L209.53,234.483L209.53,227.588Z" style="fill-rule:nonzero;"/>
    <rect x="215.047" y="215.176" width="8.274" height="6.895"/>
    <rect x="215.047" y="227.587" width="8.274" height="6.895"/>
    <path d="M209.53,260.686L209.53,253.79L201.256,253.79L201.256,260.686L209.53,260.686Z" style="fill-rule:nonzero;"/>
    <path d="M209.53,266.202L201.256,266.202L201.256,273.097L209.53,273.097L209.53,266.202Z" style="fill-rule:nonzero;"/>
    <rect x="215.047" y="253.79" width="8.274" height="6.895"/>
    <rect x="215.047" y="266.202" width="8.274" height="6.895"/>
    <path d="M209.53,299.3L209.53,292.404L201.256,292.404L201.256,299.3L209.53,299.3Z" style="fill-rule:nonzero;"/>
    <path d="M209.53,304.816L201.256,304.816L201.256,311.711L209.53,311.711L209.53,304.816Z" style="fill-rule:nonzero;"/>
    <rect x="215.047" y="292.404" width="8.274" height="6.895"/>
    <rect x="215.047" y="304.816" width="8.274" height="6.895"/>
    <g transform="matrix(1,0,0,1,-313.56,-269.326)">
        <path d="M400.352,452.783L480.339,452.783L480.339,469.332C454.701,462.257 427.965,462.764 400.352,469.332L400.352,452.783Z" style="fill-rule:nonzero;"/>
    </g>
    <g transform="matrix(1,0,0,1,-313.56,-269.326)">
        <path d="M400.352,485.881C425.317,493.236 451.979,493.236 480.339,485.881L480.339,502.43L400.352,502.43L400.352,485.881Z" style="fill-rule:nonzero;"/>
    </g>
    <g transform="matrix(1,0,0,1,-313.56,-269.326)">
        <path d="M400.352,518.979L480.339,518.979L480.339,535.528C453.08,526.824 426.389,526.413 400.352,535.528L400.352,518.979Z" style="fill-rule:nonzero;"/>
    </g>
    <g transform="matrix(1,0,0,1,-313.56,-269.326)">
        <path d="M400.352,552.077C426.439,562.13 453.125,561.712 480.339,552.077L480.339,568.626L400.352,568.626L400.352,552.077Z" style="fill-rule:nonzero;"/>
    </g>
    <g transform="matrix(1,0,0,1,-313.56,-269.326)">
        <path d="M830.24,523.326L886.44,523.326L886.44,550.406L881.42,551.977L864.72,557.189L838.52,551.12L812.35,545.055L798.53,541.854L791.63,539.301C797.37,531.425 807.81,525.23 830.24,523.326Z" style="fill-rule:nonzero;"/>
    </g>
    <g transform="matrix(1,0,0,1,-313.56,-269.326)">
        <path d="M886.44,539.301L886.44,621.722L791.63,621.722C791.6,621.671 791.58,621.624 791.55,621.573L791.55,621.569C791.527,621.511 791.501,621.456 791.47,621.402C789.99,618.423 788.663,615.452 787.49,612.488C777.54,587.41 778.62,562.994 791.63,539.301L886.44,539.301Z" style="fill:rgb(242,242,242);fill-rule:nonzero;"/>
    </g>
    <rect x="518.753" y="308.953" width="19.307" height="43.441" style="fill:rgb(204,204,204);"/>
    <path d="M498.067,321.365L498.067,314.47L489.793,314.47L489.793,321.365L498.067,321.365Z" style="fill-rule:nonzero;"/>
    <path d="M498.067,326.881L489.793,326.881L489.793,333.777L498.067,333.777L498.067,326.881Z" style="fill-rule:nonzero;"/>
    <rect x="503.583" y="314.469" width="8.274" height="6.895"/>
    <rect x="503.583" y="326.881" width="8.274" height="6.895"/>
    <path d="M554.609,321.365L554.609,314.47L546.335,314.47L546.335,321.365L554.609,321.365Z" style="fill-rule:nonzero;"/>
    <path d="M554.609,326.881L546.335,326.881L546.335,333.777L554.609,333.777L554.609,326.881Z" style="fill-rule:nonzero;"/>
    <rect x="560.125" y="314.469" width="8.274" height="6.895"/>
    <rect x="560.125" y="326.881" width="8.274" height="6.895"/>
    <g transform="matrix(1,0,0,1,-313.56,-269.326)">
        <path d="M812.353,491.326L824.238,491.326C848.487,491.326 868.44,511.28 868.44,535.528L812.353,535.528L812.353,491.326Z" style="fill-rule:nonzero;"/>
    </g>
    <g transform="matrix(1,0,0,1,-313.56,-269.326)">
        <path d="M452.353,371.326L464.238,371.326C488.487,371.326 508.44,391.28 508.44,415.528L452.353,415.528L452.353,371.326Z" style="fill-rule:nonzero;"/>
    </g>
    <g transform="matrix(1,0,0,1,-313.56,-269.326)">
        <path d="M642.353,482.326L654.238,482.326C678.487,482.326 698.44,502.28 698.44,526.528L642.353,526.528L642.353,482.326Z" style="fill-rule:nonzero;"/>
    </g>
    <rect x="498.793" y="282.751" width="56.087" height="16.549"/>
    <rect x="2.88" y="351.71" width="570" height="2"/>
    <rect x="53.451" y="272.705" width="2" height="79"/>
    <g transform="matrix(1,0,0,1,-313.56,-269.326)">
        <path d="M387.469,552.099C387.596,579.724 368.161,602.208 368.161,602.208C368.161,602.208 343.271,579.425 348.392,552.279C353.541,524.979 369.591,502.287 367.7,502.171C367.7,502.171 387.341,524.475 387.469,552.099Z" style="fill:rgb(104,144,77);fill-rule:nonzero;"/>
    </g>
    <rect x="253.451" y="272.705" width="2" height="79"/>
    <g transform="matrix(1,0,0,1,-313.56,-269.326)">
        <path d="M587.469,552.099C589.271,579.665 568.161,602.208 568.161,602.208C568.161,602.208 548.519,579.904 548.392,552.279C548.264,524.655 567.7,502.171 567.7,502.171C565.805,509.743 586.01,529.795 587.469,552.099Z" style="fill:rgb(104,144,77);fill-rule:nonzero;"/>
    </g>
    <path d="M125.513,144.289L212.387,140.039L248.83,170.458L242.387,176.275L184.678,174.976L125.513,144.289Z" style="fill-rule:nonzero;"/>
    <g transform="matrix(1,0,0,1,-313.56,-269.326)">
        <path d="M352.39,554.782L347.71,559.012L347.14,559.522L345.95,560.602L316.44,559.942L316.44,525.082C315.48,524.872 314.52,524.672 313.56,524.482L315.95,524.362L316.44,524.772L321.01,528.582L334.01,539.442L348.53,551.562L352.39,554.782Z" style="fill-rule:nonzero;"/>
    </g>
    <path d="M315.513,259.289L402.387,255.039L438.83,285.458L432.387,291.275L374.678,289.976L315.513,259.289Z" style="fill-rule:nonzero;"/>
</svg>
