<?xml version="1.0" encoding="UTF-8" standalone="no"?>
<!DOCTYPE svg PUBLIC "-//W3C//DTD SVG 1.1//EN" "http://www.w3.org/Graphics/SVG/1.1/DTD/svg11.dtd">
<svg width="100%" height="100%" viewBox="0 0 719 602" version="1.1" xmlns="http://www.w3.org/2000/svg" xmlns:xlink="http://www.w3.org/1999/xlink" xml:space="preserve" xmlns:serif="http://www.serif.com/" style="fill-rule:evenodd;clip-rule:evenodd;stroke-linejoin:round;stroke-miterlimit:2;">
    <g transform="matrix(1,0,0,1,-262.029,-164.07)">
        <path d="M895.346,200.623L263.022,200.623C262.474,200.61 262.029,200.156 262.029,199.607C262.029,199.059 262.474,198.604 263.022,198.592L895.346,198.592C895.894,198.604 896.339,199.059 896.339,199.607C896.339,200.156 895.894,200.61 895.346,200.623Z" style="fill:rgb(202,202,202);fill-rule:nonzero;"/>
    </g>
    <ellipse cx="23.348" cy="11.169" rx="10.925" ry="11.169" style="fill:rgb(63,61,86);"/>
    <ellipse cx="61.09" cy="11.169" rx="10.925" ry="11.169" style="fill:rgb(63,61,86);"/>
    <ellipse cx="98.832" cy="11.169" rx="10.925" ry="11.169" style="fill:rgb(63,61,86);"/>
    <g transform="matrix(1,0,0,1,-262.029,-164.07)">
        <path d="M872.729,166.838L845.919,166.838C844.82,166.86 843.928,167.77 843.928,168.868C843.928,169.967 844.82,170.877 845.919,170.898L872.729,170.898C873.827,170.877 874.719,169.967 874.719,168.868C874.719,167.77 873.827,166.86 872.729,166.838Z" style="fill:rgb(63,61,86);fill-rule:nonzero;"/>
    </g>
    <g transform="matrix(1,0,0,1,-262.029,-164.07)">
        <path d="M872.729,174.458L845.919,174.458C844.82,174.48 843.928,175.39 843.928,176.488C843.928,177.587 844.82,178.497 845.919,178.518L872.729,178.518C873.827,178.497 874.719,177.587 874.719,176.488C874.719,175.39 873.827,174.48 872.729,174.458Z" style="fill:rgb(63,61,86);fill-rule:nonzero;"/>
    </g>
    <g transform="matrix(1,0,0,1,-262.029,-164.07)">
        <path d="M872.729,182.068L845.919,182.068C844.82,182.09 843.928,183 843.928,184.098C843.928,185.197 844.82,186.106 845.919,186.128L872.729,186.128C873.827,186.106 874.719,185.197 874.719,184.098C874.719,183 873.827,182.09 872.729,182.068Z" style="fill:rgb(63,61,86);fill-rule:nonzero;"/>
    </g>
    <g transform="matrix(1,0,0,1,-262.029,-164.07)">
        <path d="M862.717,234.906L286.777,234.906C280.181,234.916 274.757,240.34 274.747,246.936L274.747,248.876C274.757,255.472 280.181,260.896 286.777,260.906L862.717,260.906C869.313,260.896 874.737,255.472 874.747,248.876L874.747,246.936C874.737,240.34 869.313,234.916 862.717,234.906Z" style="fill:rgb(240,240,240);fill-rule:nonzero;"/>
    </g>
    <g transform="matrix(1,0,0,1,-262.029,-164.07)">
        <path d="M356.282,252.706L301.459,252.706C298.922,252.702 296.837,250.614 296.837,248.077C296.837,245.54 298.922,243.451 301.459,243.447L356.282,243.447C362.253,243.364 362.312,252.79 356.282,252.706Z" style="fill:white;fill-rule:nonzero;"/>
    </g>
    <g transform="matrix(1,0,0,1,-262.029,-164.07)">
        <path d="M520.282,252.706L465.459,252.706C462.922,252.702 460.837,250.614 460.837,248.077C460.837,245.54 462.922,243.451 465.459,243.447L520.282,243.447C526.253,243.364 526.312,252.79 520.282,252.706Z" style="fill:white;fill-rule:nonzero;"/>
    </g>
    <g transform="matrix(1,0,0,1,-262.029,-164.07)">
        <path d="M684.282,252.706L629.459,252.706C626.922,252.702 624.837,250.614 624.837,248.077C624.837,245.54 626.922,243.451 629.459,243.447L684.282,243.447C690.253,243.364 690.312,252.79 684.282,252.706Z" style="fill:white;fill-rule:nonzero;"/>
    </g>
    <g transform="matrix(1,0,0,1,-262.029,-164.07)">
        <path d="M839.782,253.206L784.959,253.206C782.42,253.206 780.33,251.116 780.33,248.577C780.33,246.037 782.42,243.947 784.959,243.947L839.782,243.947C845.753,243.864 845.812,253.29 839.782,253.206Z" style="fill:rgb(218,106,0);fill-rule:nonzero;"/>
    </g>
    <rect x="490.218" y="70.836" width="2" height="26" style="fill:white;"/>
    <g transform="matrix(1,0,0,1,-262.029,-164.07)">
        <path d="M547.292,619.718L312.239,619.718C307.907,619.713 304.344,616.151 304.339,611.819L304.339,577.393C304.344,573.062 307.907,569.499 312.239,569.494L547.292,569.494C551.624,569.499 555.187,573.062 555.192,577.393L555.192,611.819C555.187,616.151 551.624,619.713 547.292,619.718Z" style="fill:rgb(240,240,240);fill-rule:nonzero;"/>
    </g>
    <g transform="matrix(1,0,0,1,-262.029,-164.07)">
        <path d="M524.454,614.39L317.569,614.39C313.237,614.385 309.674,610.822 309.669,606.49L309.669,582.726C309.674,578.394 313.237,574.831 317.569,574.826L541.964,574.826C546.295,574.831 549.858,578.394 549.863,582.726L549.863,588.98C549.848,602.914 538.387,614.374 524.454,614.39Z" style="fill:white;fill-rule:nonzero;"/>
    </g>
    <g transform="matrix(1,0,0,1,-262.029,-164.07)">
        <path d="M453.09,592.157L358.617,592.157C357.499,592.157 356.58,591.237 356.58,590.12C356.58,589.002 357.499,588.083 358.617,588.083L453.09,588.083C454.208,588.083 455.128,589.002 455.128,590.12C455.128,591.237 454.208,592.157 453.09,592.157Z" style="fill:rgb(230,230,230);fill-rule:nonzero;"/>
    </g>
    <g transform="matrix(1,0,0,1,-262.029,-164.07)">
        <path d="M500.915,600.49L358.617,600.49C358.615,600.49 358.614,600.49 358.612,600.49C357.495,600.49 356.575,599.57 356.575,598.453C356.575,597.335 357.495,596.415 358.612,596.415C358.614,596.415 358.615,596.415 358.617,596.415L500.915,596.415C502.03,596.418 502.947,597.337 502.947,598.453C502.947,599.568 502.03,600.487 500.915,600.49Z" style="fill:rgb(230,230,230);fill-rule:nonzero;"/>
    </g>
    <g transform="matrix(1,0,0,1,-262.029,-164.07)">
        <path d="M562.307,530.106L294.297,530.106C289.874,530.101 286.236,526.463 286.231,522.04L286.231,317.172C286.236,312.749 289.874,309.111 294.297,309.106L562.307,309.106C566.73,309.111 570.368,312.749 570.373,317.172L570.373,522.04C570.368,526.463 566.73,530.101 562.307,530.106Z" style="fill:white;fill-rule:nonzero;"/>
    </g>
    <g transform="matrix(1,0,0,1,-262.029,-164.07)">
        <path d="M562.307,531.106L294.297,531.106C289.326,531.1 285.236,527.011 285.231,522.04L285.231,317.172C285.236,312.201 289.326,308.112 294.297,308.106L562.307,308.106C567.278,308.112 571.367,312.201 571.373,317.172L571.373,522.04C571.367,527.011 567.278,531.1 562.307,531.106ZM294.297,310.106C290.422,310.11 287.235,313.297 287.231,317.172L287.231,522.04C287.235,525.915 290.422,529.102 294.297,529.106L562.307,529.106C566.182,529.102 569.369,525.915 569.373,522.04L569.373,317.172C569.369,313.297 566.182,310.11 562.307,310.106L294.297,310.106Z" style="fill:rgb(240,240,240);fill-rule:nonzero;"/>
    </g>
    <g transform="matrix(1,0,0,1,-262.029,-164.07)">
        <path d="M286.85,491.106L286.85,522.04C286.856,526.123 290.214,529.481 294.297,529.487L562.307,529.487C566.39,529.481 569.748,526.123 569.754,522.04L569.754,491.106L286.85,491.106Z" style="fill:rgb(240,240,240);fill-rule:nonzero;"/>
    </g>
    <g transform="matrix(0.539192,-0.842183,0.842183,0.539192,-402.073,382.342)">
        <rect x="428.295" y="234.4" width="2" height="333.56" style="fill:rgb(240,240,240);"/>
    </g>
    <g transform="matrix(0.842183,-0.539192,0.539192,0.842183,-410.466,131.143)">
        <rect x="263.309" y="400.18" width="333.56" height="2" style="fill:rgb(240,240,240);"/>
    </g>
    <path d="M545.364,587.788L532.974,587.787L527.079,539.998L545.366,539.999L545.364,587.788Z" style="fill:rgb(160,97,106);fill-rule:nonzero;"/>
    <g transform="matrix(1,0,0,1,-262.029,-164.07)">
        <path d="M807.063,747.809L793.843,742.439L793.453,742.279L786.153,747.809C777.879,747.808 770.981,754.413 770.623,762.679C770.603,762.899 770.603,763.129 770.603,763.359L770.603,763.869L810.553,763.869L810.553,747.809L807.063,747.809Z" style="fill:rgb(47,46,65);fill-rule:nonzero;"/>
    </g>
    <path d="M516.348,576.258L504.66,580.37L483.238,537.245L500.488,531.177L516.348,576.258Z" style="fill:rgb(160,97,106);fill-rule:nonzero;"/>
    <g transform="matrix(1,0,0,1,-262.029,-164.07)">
        <path d="M776.722,736.618L762.469,735.94L762.048,735.919L756.997,743.558C749.192,746.303 744.877,754.824 747.283,762.74C747.337,762.954 747.414,763.171 747.49,763.388L747.659,763.869L785.345,750.609L780.014,735.46L776.722,736.618Z" style="fill:rgb(47,46,65);fill-rule:nonzero;"/>
    </g>
    <g transform="matrix(1,0,0,1,-262.029,-164.07)">
        <path d="M811.771,545.8C823.106,545.36 809.065,635.689 809.065,635.689C809.065,635.689 813.172,714.995 812.302,719.157C811.431,723.319 812.192,734.543 812.192,734.543C809.971,730.501 787.059,733.552 787.059,733.552L783.943,653.176L768.029,588.776L745.967,631.944L767.113,698.205C767.113,698.205 775.676,706.129 774.765,709.26C773.855,712.392 751.424,719.453 747.303,719.613C743.181,719.773 745.042,714.541 744.842,709.389C744.642,704.236 725.246,656.484 718.424,640.236C711.602,623.989 716.906,601.079 720.388,584.432C723.871,567.784 742.192,536.543 742.192,536.543C764.933,510.893 800.436,546.239 811.771,545.8Z" style="fill:rgb(47,46,65);fill-rule:nonzero;"/>
    </g>
    <g transform="matrix(1,0,0,1,-262.029,-164.07)">
        <path d="M673.634,472.802C675.212,475.817 678.345,477.713 681.748,477.713C683.777,477.713 685.75,477.039 687.354,475.797L714.612,493.581L714.529,476.668L688.657,462.373C686.91,460.401 684.399,459.271 681.764,459.271C676.713,459.271 672.556,463.427 672.556,468.479C672.556,469.986 672.926,471.471 673.634,472.802Z" style="fill:rgb(160,97,106);fill-rule:nonzero;"/>
    </g>
    <g transform="matrix(1,0,0,1,-262.029,-164.07)">
        <path d="M805.884,560.28C777.774,560.281 762.284,554.654 754.057,549.63C743.999,543.486 742.278,537.008 742.209,536.735L742.189,536.656L743.168,524.336L743.597,523.377C745.569,518.962 745.831,513.967 744.331,509.37L744.3,509.276L744.308,509.177L750.881,423.932L774.14,416.313L780.907,409.514L811.035,409.077L815.232,417.588L838.983,426.529L827.315,495.986L821.721,505.627L823.972,516.13L823.956,516.225L816.618,560.025L816.214,560.042C812.595,560.204 809.152,560.284 805.884,560.28Z" style="fill:rgb(63,61,86);fill-rule:nonzero;"/>
    </g>
    <g transform="matrix(1,0,0,1,-262.029,-164.07)">
        <path d="M733.162,507.099L722.134,500.561L721.443,499.563C718.599,495.469 713.972,492.962 708.989,492.815L708.861,492.811L693.672,483.881L699.968,465.438L723.778,472.472L740.378,431.227C742.385,426.24 747.247,422.956 752.622,422.956C757.194,422.956 761.452,425.331 763.853,429.221C765.167,431.392 765.849,433.888 765.821,436.426L765.821,463.413L765.721,463.547L733.162,507.099Z" style="fill:rgb(63,61,86);fill-rule:nonzero;"/>
    </g>
    <g transform="matrix(1,0,0,1,-262.029,-164.07)">
        <path d="M806.889,544.418C807.667,540.069 811.487,536.872 815.905,536.872C816.987,536.872 818.06,537.064 819.076,537.438L839.732,512.287L844.734,528.443L824.352,549.851C822.873,553.163 819.57,555.306 815.943,555.306C810.891,555.306 806.735,551.149 806.735,546.098C806.735,545.534 806.786,544.972 806.889,544.418L806.889,544.418Z" style="fill:rgb(160,97,106);fill-rule:nonzero;"/>
    </g>
    <g transform="matrix(1,0,0,1,-262.029,-164.07)">
        <path d="M837.773,541.239L824.057,527.522L832.788,506.247L845.442,488.969C831.958,482.404 821.837,466.854 814.503,453.981L814.42,453.836L816.246,439.532C816.674,436.187 818.014,433.023 820.12,430.389C823.604,426.032 828.889,423.491 834.468,423.491C840.784,423.491 846.672,426.748 850.029,432.098L874.62,486.767L874.344,487.18L854.563,520.899L849.165,524.4L837.773,541.239Z" style="fill:rgb(63,61,86);fill-rule:nonzero;"/>
    </g>
    <g transform="matrix(1,0,0,1,-262.029,-164.07)">
        <path d="M817.602,380.403C815.904,392.776 805.219,402.095 792.73,402.095C778.958,402.095 767.626,390.762 767.626,376.99C767.626,375.867 767.701,374.745 767.851,373.632L767.9,373.275C769.839,361.147 780.408,352.134 792.69,352.134C806.462,352.134 817.794,363.467 817.794,377.239C817.794,378.296 817.728,379.353 817.594,380.402L817.602,380.403Z" style="fill:rgb(160,97,106);fill-rule:nonzero;"/>
    </g>
    <g transform="matrix(1,0,0,1,-262.029,-164.07)">
        <path d="M811.213,393.333C812.502,390.715 813.826,387.903 813.464,385.007C813.102,382.11 810.261,379.342 807.472,380.203C805.804,380.717 804.543,382.364 802.8,382.449C800.401,382.565 799.026,379.819 798.279,377.536L795.238,368.24C789.329,372.845 781.662,374.578 774.347,372.961C771.524,372.315 768.671,371.057 767.015,368.68C765.359,366.304 765.369,362.619 767.64,360.822C768.754,359.941 770.237,359.606 771.301,358.666C772.182,357.888 772.688,356.767 772.688,355.592C772.688,353.341 770.836,351.489 768.586,351.489C768.398,351.489 768.211,351.502 768.026,351.528L775.682,350.571L773.401,346.445C775.154,347.637 777.331,348.037 779.393,347.544C781.453,347.173 783.393,346.325 785.408,345.759C795.416,343.204 805.98,347.64 811.163,356.574C815.012,355.288 819.278,356.52 821.85,359.66C823.899,362.261 824.457,365.733 824.536,369.044C824.685,375.572 823.262,382.041 820.386,387.904C819.561,389.766 818.376,391.447 816.899,392.85C815.395,394.257 813.343,394.928 811.298,394.682" style="fill:rgb(47,46,65);fill-rule:nonzero;"/>
    </g>
    <g transform="matrix(1,0,0,1,-262.029,-164.07)">
        <path d="M404.402,367.503C404.812,373.35 406.534,379.03 409.442,384.119C415.569,394.88 426.077,402.671 437.394,407.302C451.533,413.088 467.294,413.266 482.299,411.976C496.235,410.778 510.03,408 524.018,407.428C534.836,407.082 545.665,407.34 556.453,408.202C577.385,409.687 598.23,412.444 618.94,415.786C624.549,416.68 630.146,417.64 635.731,418.667C636.259,418.714 636.781,418.811 637.291,418.957C637.392,418.998 637.555,418.966 637.648,419.024C637.817,419.13 636.966,418.755 637.482,419.181C638.2,419.935 638.841,420.759 639.394,421.642L647.043,431.485C649.236,434.308 651.272,437.738 654.107,439.963C658.186,443.114 663.789,443.504 668.266,440.949C670.558,439.501 672.386,437.425 673.531,434.968C675.291,431.742 677.39,428.712 679.793,425.931C688.893,415.315 701.54,408.786 712.118,399.853C717.241,395.704 721.614,390.705 725.046,385.075C727.973,379.981 729.793,374.326 730.387,368.481C731.654,356.609 728.011,344.503 721.884,334.404C715.22,323.555 705.645,314.79 694.25,309.11C681.448,302.588 667.282,299.411 653.082,297.828C638.006,296.147 622.754,296.152 607.604,296.322C590.601,296.511 573.63,297.259 556.689,298.565C539.725,299.878 522.828,301.745 505.998,304.164C489.848,306.486 473.502,308.906 457.694,313.015C443.729,316.644 429.803,322.317 419.375,332.595C410.103,341.735 403.654,354.241 404.402,367.503Z" style="fill:rgb(218,106,0);fill-rule:nonzero;"/>
    </g>
    <g transform="matrix(1,0,0,1,-262.029,-164.07)">
        <path d="M482.463,371.28C479.804,371.16 477.681,368.94 477.681,366.278C477.681,366.07 477.694,365.862 477.72,365.655L478.079,362.831C478.218,361.732 477.807,360.632 476.981,359.894L474.859,357.998C473.799,357.051 473.193,355.695 473.193,354.274C473.193,351.885 474.907,349.815 477.254,349.369L480.051,348.838C481.139,348.631 482.058,347.902 482.505,346.889L483.653,344.281C484.45,342.474 486.247,341.303 488.222,341.303C490.042,341.303 491.723,342.298 492.599,343.893L493.968,346.389C494.5,347.361 495.48,348.01 496.582,348.122L499.414,348.408C501.951,348.665 503.905,350.826 503.905,353.376C503.905,354.647 503.419,355.871 502.548,356.797L500.598,358.87C499.838,359.676 499.524,360.807 499.759,361.889L500.361,364.673C500.436,365.02 500.474,365.374 500.474,365.729C500.474,368.468 498.22,370.722 495.481,370.722C494.745,370.722 494.018,370.559 493.352,370.245L490.777,369.032C489.776,368.557 488.602,368.608 487.645,369.166L485.184,370.599C484.361,371.081 483.416,371.317 482.463,371.28Z" style="fill:white;fill-rule:nonzero;"/>
    </g>
    <g transform="matrix(1,0,0,1,-262.029,-164.07)">
        <path d="M522.558,370.115C521.288,370.057 520.086,369.52 519.195,368.614C518.104,367.458 517.604,365.862 517.841,364.291L518.17,361.699C518.312,360.579 517.894,359.459 517.052,358.707L515.084,356.948C513.909,355.946 513.247,354.464 513.285,352.92C513.373,350.6 515.068,348.634 517.35,348.205L520.114,347.679C521.223,347.469 522.16,346.724 522.614,345.691L523.645,343.351C524.395,341.544 526.1,340.303 528.051,340.145C529.965,340.037 531.778,341.045 532.695,342.729L534.047,345.196C534.591,346.186 535.589,346.847 536.713,346.961L539.337,347.226C540.878,347.347 542.285,348.157 543.162,349.43C544.452,351.358 544.236,353.944 542.644,355.632L540.716,357.682C539.943,358.503 539.624,359.654 539.862,360.756L540.417,363.327C540.778,364.829 540.445,366.416 539.511,367.646C538.081,369.479 535.548,370.079 533.448,369.081L530.899,367.88C529.88,367.399 528.686,367.451 527.712,368.018L525.28,369.435C524.456,369.917 523.512,370.153 522.558,370.115Z" style="fill:white;fill-rule:nonzero;"/>
    </g>
    <g transform="matrix(1,0,0,1,-262.029,-164.07)">
        <path d="M562.757,369.945C560.098,369.826 557.976,367.605 557.976,364.944C557.976,364.735 557.989,364.527 558.014,364.321L558.373,361.496C558.512,360.397 558.101,359.298 557.276,358.559L555.154,356.663C554.094,355.716 553.487,354.361 553.487,352.94C553.487,350.551 555.202,348.48 557.549,348.035L560.346,347.503C561.434,347.297 562.352,346.567 562.799,345.554L563.947,342.947C564.744,341.14 566.541,339.968 568.516,339.968C570.336,339.968 572.018,340.963 572.894,342.559L574.263,345.055C574.795,346.027 575.774,346.676 576.877,346.788L579.709,347.074C582.246,347.33 584.199,349.491 584.199,352.041C584.199,353.312 583.714,354.536 582.843,355.462L580.892,357.536C580.133,358.342 579.819,359.473 580.054,360.555L580.656,363.339C580.731,363.686 580.769,364.04 580.769,364.395C580.769,367.133 578.515,369.387 575.776,369.387C575.04,369.387 574.313,369.225 573.647,368.911L571.072,367.697C570.07,367.223 568.897,367.273 567.94,367.832L565.479,369.265C564.655,369.747 563.711,369.983 562.757,369.945Z" style="fill:white;fill-rule:nonzero;"/>
    </g>
    <g transform="matrix(1,0,0,1,-223.029,-165.07)">
        <path d="M562.757,369.945C560.098,369.826 557.976,367.605 557.976,364.944C557.976,364.735 557.989,364.527 558.014,364.321L558.373,361.496C558.512,360.397 558.101,359.298 557.276,358.559L555.154,356.663C554.094,355.716 553.487,354.361 553.487,352.94C553.487,350.551 555.202,348.48 557.549,348.035L560.346,347.503C561.434,347.297 562.352,346.567 562.799,345.554L563.947,342.947C564.744,341.14 566.541,339.968 568.516,339.968C570.336,339.968 572.018,340.963 572.894,342.559L574.263,345.055C574.795,346.027 575.774,346.676 576.877,346.788L579.709,347.074C582.246,347.33 584.199,349.491 584.199,352.041C584.199,353.312 583.714,354.536 582.843,355.462L580.892,357.536C580.133,358.342 579.819,359.473 580.054,360.555L580.656,363.339C580.731,363.686 580.769,364.04 580.769,364.395C580.769,367.133 578.515,369.387 575.776,369.387C575.04,369.387 574.313,369.225 573.647,368.911L571.072,367.697C570.07,367.223 568.897,367.273 567.94,367.832L565.479,369.265C564.655,369.747 563.711,369.983 562.757,369.945Z" style="fill:white;fill-rule:nonzero;"/>
    </g>
    <g transform="matrix(1,0,0,1,-262.029,-164.07)">
        <path d="M640.959,367.824C638.3,367.704 636.177,365.484 636.177,362.822C636.177,362.614 636.19,362.406 636.216,362.199L636.575,359.375C636.714,358.276 636.303,357.176 635.477,356.438L633.355,354.542C632.296,353.595 631.689,352.239 631.689,350.818C631.689,348.429 633.403,346.359 635.75,345.913L638.548,345.382C639.635,345.175 640.554,344.445 641.001,343.433L642.149,340.825C642.946,339.018 644.743,337.847 646.718,337.847C648.538,337.847 650.22,338.842 651.095,340.437L652.464,342.933C652.997,343.905 653.976,344.554 655.079,344.666L657.91,344.952C660.447,345.209 662.401,347.37 662.401,349.92C662.401,351.191 661.915,352.415 661.044,353.341L659.094,355.414C658.335,356.22 658.021,357.351 658.256,358.433L658.857,361.217C658.932,361.564 658.97,361.918 658.97,362.273C658.97,365.012 656.716,367.266 653.977,367.266C653.241,367.266 652.514,367.103 651.849,366.789L649.273,365.576C648.272,365.101 647.098,365.152 646.141,365.71L643.681,367.143C642.857,367.625 641.912,367.861 640.959,367.824Z" style="fill-opacity:0.2;fill-rule:nonzero;"/>
    </g>
    <g transform="matrix(1,0,0,1,-262.029,-164.07)">
        <path d="M890.071,701.439L891.215,675.72C903.138,669.347 916.439,665.979 929.959,665.912C911.351,681.126 913.676,710.453 901.06,730.912C892.996,743.768 879.498,752.274 864.421,754.001L848.849,763.535C844.527,739.441 850.982,714.625 866.496,695.69C870.851,690.481 875.844,685.841 881.359,681.88C885.088,691.714 890.071,701.439 890.071,701.439Z" style="fill:rgb(242,242,242);fill-rule:nonzero;"/>
    </g>
    <g transform="matrix(1,0,0,1,-262.029,-164.07)">
        <path d="M979.347,765.788L561.965,765.788C561.312,765.788 560.775,765.251 560.775,764.598C560.775,763.944 561.312,763.407 561.965,763.407L979.347,763.407C980,763.407 980.538,763.944 980.538,764.598C980.538,765.251 980,765.788 979.347,765.788Z" style="fill:rgb(202,202,202);fill-rule:nonzero;"/>
    </g>
</svg>
